<?xml version="1.0"?>
<svg xmlns="http://www.w3.org/2000/svg" xmlns:xlink="http://www.w3.org/1999/xlink" xmlns:svgjs="http://svgjs.com/svgjs" version="1.1" width="512" height="512" x="0" y="0" viewBox="0 0 512 512" style="enable-background:new 0 0 512 512" xml:space="preserve"><g><linearGradient xmlns="http://www.w3.org/2000/svg" id="a" gradientUnits="userSpaceOnUse" x1="255.999" x2="255.999" y1="22" y2="490.427"><stop stop-opacity="1" stop-color="#851af8" offset="0"/><stop stop-opacity="1" stop-color="#f8277d" offset="1"/></linearGradient><g xmlns="http://www.w3.org/2000/svg" fill="url(#a)"><path d="m464.739 385.75c-6.374-4.1-11.7-10.184-17.348-16.627-12.02-13.723-25.644-29.277-52.708-29.277-27.235 0-40.871 15.675-52.9 29.5-11 12.644-19.689 22.631-37.813 22.631s-26.819-9.977-37.82-22.626c-12.031-13.83-25.669-29.5-52.9-29.5s-40.871 15.675-52.9 29.5c-11 12.644-19.691 22.631-37.816 22.631-18.025 0-26.7-9.945-37.678-22.537-7.787-8.923-15.833-18.145-27.856-23.923a10 10 0 0 0 -8.654 18.032c8.315 3.991 14.689 11.3 21.437 19.037 12.014 13.776 25.632 29.391 52.752 29.391 27.235 0 40.872-15.674 52.905-29.5 11-12.645 19.689-22.632 37.813-22.632s26.814 9.987 37.814 22.632c12.032 13.83 25.669 29.5 52.9 29.5s40.871-15.674 52.9-29.5c11-12.645 19.69-22.632 37.814-22.632 18 0 26.674 9.909 37.663 22.455 6.309 7.2 12.833 14.65 21.579 20.273a10 10 0 1 0 10.814-16.824z" fill=""/><path d="m464.739 307.545c-6.374-4.1-11.7-10.184-17.348-16.627-12.02-13.723-25.644-29.277-52.708-29.277-27.235 0-40.871 15.674-52.9 29.5-11 12.644-19.689 22.631-37.813 22.631s-26.815-9.987-37.816-22.631c-12.031-13.831-25.669-29.5-52.9-29.5s-40.871 15.674-52.9 29.5c-11 12.644-19.691 22.631-37.816 22.631-18.025 0-26.7-9.945-37.678-22.537-7.791-8.918-15.837-18.144-27.86-23.918a10 10 0 0 0 -8.654 18.032c8.315 3.991 14.689 11.3 21.437 19.037 12.014 13.776 25.632 29.391 52.752 29.391 27.235 0 40.872-15.674 52.905-29.5 11-12.644 19.689-22.631 37.813-22.631s26.814 9.987 37.814 22.631c12.032 13.831 25.669 29.5 52.9 29.5s40.871-15.674 52.9-29.5c11-12.644 19.69-22.631 37.814-22.631 18 0 26.674 9.909 37.663 22.455 6.309 7.2 12.833 14.65 21.579 20.273a10 10 0 1 0 10.814-16.824z" fill=""/><path d="m464.739 224.127c-6.374-4.1-11.7-10.184-17.348-16.627-12.02-13.723-25.644-29.277-52.708-29.277-27.235 0-40.871 15.674-52.9 29.5-11 12.644-19.689 22.631-37.813 22.631s-26.815-9.987-37.816-22.631c-12.031-13.831-25.669-29.5-52.9-29.5s-40.871 15.674-52.9 29.5c-11 12.644-19.691 22.631-37.816 22.631-18.025 0-26.7-9.945-37.678-22.537-7.791-8.917-15.837-18.144-27.86-23.917a10 10 0 1 0 -8.654 18.032c8.315 3.991 14.689 11.3 21.437 19.037 12.014 13.776 25.632 29.391 52.752 29.391 27.235 0 40.872-15.674 52.905-29.5 11-12.644 19.689-22.631 37.813-22.631s26.814 9.987 37.814 22.631c12.032 13.831 25.669 29.5 52.9 29.5s40.871-15.674 52.9-29.5c11-12.644 19.69-22.631 37.814-22.631 18 0 26.674 9.909 37.663 22.455 6.309 7.2 12.833 14.65 21.579 20.273a10 10 0 1 0 10.814-16.824z" fill=""/><path d="m48.341 123.726c8.315 3.991 14.689 11.3 21.437 19.037 12.014 13.776 25.632 29.391 52.752 29.391 27.235 0 40.872-15.675 52.905-29.5 11-12.644 19.689-22.631 37.813-22.631s26.814 9.987 37.814 22.631c12.032 13.83 25.669 29.5 52.9 29.5s40.871-15.675 52.9-29.5c11-12.644 19.69-22.631 37.814-22.631 18 0 26.674 9.909 37.663 22.455 6.309 7.2 12.833 14.65 21.579 20.273a10 10 0 1 0 10.814-16.824c-6.374-4.1-11.7-10.184-17.348-16.627-12.02-13.723-25.644-29.277-52.708-29.277-27.235 0-40.871 15.674-52.9 29.5-11 12.645-19.689 22.632-37.813 22.632s-26.815-9.987-37.816-22.632c-12.031-13.83-25.669-29.5-52.9-29.5s-40.871 15.674-52.9 29.5c-11 12.645-19.691 22.632-37.816 22.632-18.025 0-26.7-9.945-37.678-22.537-7.784-8.924-15.83-18.15-27.853-23.924a10 10 0 1 0 -8.654 18.032z" fill=""/></g></g></svg>
